<?xml version="1.0" encoding="utf-8"?>
<!-- Generator: Adobe Illustrator 17.0.0, SVG Export Plug-In . SVG Version: 6.00 Build 0)  -->
<!DOCTYPE svg PUBLIC "-//W3C//DTD SVG 1.1//EN" "http://www.w3.org/Graphics/SVG/1.1/DTD/svg11.dtd">
<svg version="1.1" id="Layer_1" xmlns="http://www.w3.org/2000/svg" xmlns:xlink="http://www.w3.org/1999/xlink" x="0px" y="0px"
	 width="626px" height="625.513px" viewBox="0 0 626 625.513" enable-background="new 0 0 626 625.513" xml:space="preserve">
<path fill="#FF0F2E" d="M533,0c-0.667,0-1.333,0-2,0c-1,0-2,0-3,0C382.667,0,237.333,0,92,0H0v92c0,145.333,0,290.667,0,436
	c0,1,0,2,0,3c0,1.333,0,2.667,0,4v90.025h85.224C87.132,625.4,89.056,625.728,91,626c1.667,0,3.333,0,5,0c0.667,0,1.333,0,2,0
	c71.667,0,143.333,0,215,0c0.27-0.315,0.486-0.642,0.674-0.975c1.154-2.051,0.881-4.406,0.882-6.668
	c0.023-73.493,0.029-146.986,0.005-220.479c-0.003-8.576-0.868-9.422-9.46-9.439c-19.998-0.04-39.996,0.015-59.994-0.028
	c-6.944-0.015-7.501-0.536-7.512-7.312c-0.044-28.997-0.04-57.995-0.003-86.992c0.009-7.129,0.426-7.507,7.758-7.522
	c20.498-0.041,40.996,0.055,61.494-0.052c6.508-0.034,7.604-1.144,7.687-7.589c0.134-10.498,0.113-20.998,0.029-31.496
	c-0.238-29.677,7.507-57.054,24.204-81.607c23.416-34.433,55.372-53.522,97.817-53.289c23.164,0.128,46.329,0.012,69.493,0.029
	c7.176,0.005,7.34,0.156,7.344,7.206c0.019,28.831,0.021,57.661-0.001,86.492c-0.006,7.621-0.521,8.084-8.319,8.143
	c-2.166,0.016-4.333,0.003-6.499,0.004c-21.998,0.007-43.996,0.057-65.994-0.027c-7.898-0.03-13.673,3.298-17.975,9.784
	c-3.426,5.165-5.224,10.713-5.207,16.92c0.033,11.999-0.018,23.998,0.017,35.997c0.026,8.673,0.791,9.455,9.389,9.463
	c28.831,0.03,57.661,0.003,86.492,0.016c8.01,0.003,8.097,0.083,8.101,8.049c0.014,28.331,0.006,56.661,0.004,84.992
	c0,1.333-0.07,2.667-0.059,3.998c0.029,3.386-1.73,4.788-4.971,4.772c-1.832-0.009-3.666,0.035-5.499,0.036
	c-28.331,0.008-56.661-0.039-84.992,0.029c-7.328,0.018-8.444,1.112-8.449,8.421c-0.05,74.16-0.035,148.319-0.011,222.479
	c0.001,1.944-0.092,3.936,0.88,5.671c0.187,0.334,0.4,0.662,0.676,0.975c40.667,0,81.333,0,122,0c2.4-0.738,4.897-0.77,7.373-0.975
	H626V535c0-1.667,0-3.333,0-5c0-1,0-2,0-3c0-145,0-290,0-435V0H533z"/>
</svg>
