<?xml version="1.0" encoding="utf-8"?>
<!-- Generator: Adobe Illustrator 17.0.0, SVG Export Plug-In . SVG Version: 6.00 Build 0)  -->
<!DOCTYPE svg PUBLIC "-//W3C//DTD SVG 1.1//EN" "http://www.w3.org/Graphics/SVG/1.1/DTD/svg11.dtd">
<svg version="1.1" id="Layer_1" xmlns="http://www.w3.org/2000/svg" xmlns:xlink="http://www.w3.org/1999/xlink" x="0px" y="0px"
	 width="83.785px" height="64.488px" viewBox="0 0 83.785 64.488" enable-background="new 0 0 83.785 64.488" xml:space="preserve">
<path fill="#FFFFFF" d="M15.656,19.125H68.13c2.414,0,4.373-1.959,4.373-4.373s-1.959-4.373-4.373-4.373H15.656
	c-2.414,0-4.373,1.959-4.373,4.373S13.242,19.125,15.656,19.125z M68.13,27.871H15.656c-2.414,0-4.373,1.959-4.373,4.373
	c0,2.414,1.959,4.373,4.373,4.373H68.13c2.414,0,4.373-1.959,4.373-4.373C72.503,29.83,70.544,27.871,68.13,27.871z M68.13,45.363
	H15.656c-2.414,0-4.373,1.959-4.373,4.373s1.959,4.373,4.373,4.373H68.13c2.414,0,4.373-1.959,4.373-4.373
	S70.544,45.363,68.13,45.363z"/>
</svg>
