<?xml version="1.0" encoding="utf-8"?>
<!-- Generator: Adobe Illustrator 17.0.0, SVG Export Plug-In . SVG Version: 6.00 Build 0)  -->
<!DOCTYPE svg PUBLIC "-//W3C//DTD SVG 1.1//EN" "http://www.w3.org/Graphics/SVG/1.1/DTD/svg11.dtd">
<svg version="1.1" id="Layer_1" xmlns="http://www.w3.org/2000/svg" xmlns:xlink="http://www.w3.org/1999/xlink" x="0px" y="0px"
	 width="772.571px" height="594.631px" viewBox="-65.5 28.349 772.571 594.631"
	 enable-background="new -65.5 28.349 772.571 594.631" xml:space="preserve">
<path fill="#131111" d="M78.857,204.7h483.857c22.257,0,40.321-18.064,40.321-40.321s-18.064-40.321-40.321-40.321H78.857
	c-22.257,0-40.321,18.064-40.321,40.321S56.599,204.7,78.857,204.7z M562.714,285.343H78.857c-22.257,0-40.321,18.064-40.321,40.321
	c0,22.257,18.064,40.321,40.321,40.321h483.857c22.257,0,40.321-18.064,40.321-40.321
	C603.035,303.407,584.971,285.343,562.714,285.343z M562.714,446.629H78.857c-22.257,0-40.321,18.064-40.321,40.321
	c0,22.257,18.064,40.321,40.321,40.321h483.857c22.257,0,40.321-18.064,40.321-40.321
	C603.035,464.693,584.971,446.629,562.714,446.629z"/>
</svg>
