<?xml version="1.0" encoding="utf-8"?>
<!-- Generator: Adobe Illustrator 17.0.0, SVG Export Plug-In . SVG Version: 6.00 Build 0)  -->
<!DOCTYPE svg PUBLIC "-//W3C//DTD SVG 1.1//EN" "http://www.w3.org/Graphics/SVG/1.1/DTD/svg11.dtd">
<svg version="1.1" id="Layer_1" xmlns="http://www.w3.org/2000/svg" xmlns:xlink="http://www.w3.org/1999/xlink" x="0px" y="0px"
	 width="500px" height="500px" viewBox="0 0 500 500" enable-background="new 0 0 500 500" xml:space="preserve">
<g>
	<path fill="#A92023" d="M302.719,299.93c-7.588,0.002-14.906-0.896-21.952-3.779c-6.009-2.458-11.41-5.94-16.039-10.402
		c-3.732-3.597-5.928-8.248-6.532-13.491c-0.447-3.875-0.126-7.672,1.301-11.363c2.357-6.097,6.806-10.19,12.505-12.988
		c6.933-3.404,13.303-7.766,19.23-12.558c5.517-4.46,10.579-9.553,15.348-14.936c6.679-7.538,12.067-15.865,16.682-24.703
		c4.188-8.021,7.19-16.51,9.389-25.346c1.707-6.861,2.797-13.791,3.35-20.763c0.401-5.066,0.037-10.225-0.249-15.358
		c-0.404-7.275-1.798-14.354-3.536-21.296c-2.805-11.204-7.518-21.773-13.67-31.564c-6.153-9.794-13.306-18.766-22.028-26.554
		c-8.299-7.41-17.287-13.665-27.168-18.62c-4.816-2.415-9.924-4.249-15.005-6.136c-7.676-2.85-15.541-4.98-23.563-5.482
		c-8.623-0.54-17.339-0.552-26.032,0.246c-6.535,0.6-12.8,2.296-18.965,4.129c-6.883,2.046-13.464,5.087-19.918,8.388
		c-10.72,5.482-20.178,12.636-28.755,20.947c-3.841,3.722-7.391,7.782-10.678,12.07c-4.859,6.338-9.307,12.966-12.776,20.097
		c-4.317,8.876-7.639,18.2-9.759,27.9c-1.412,6.465-2.585,13.025-2.597,19.596c-0.13,70.383-0.081,140.767-0.081,211.15
		c0,0.937,0,1.875,0,2.812c-0.252,0.18-0.504,0.361-0.757,0.541c-0.218-0.477-0.364-1.006-0.664-1.424
		c-5.61-7.81-11.546-15.369-17.494-22.922c-0.965-1.225-1.326-1.143-2.378-0.321c-4.1,3.205-8.291,6.293-12.412,9.471
		c-5.162,3.982-10.267,8.039-15.438,12.009c-4.127,3.167-8.249,6.349-12.514,9.323c-1.623,1.132-1.795,2.116-0.723,3.557
		c2.123,2.85,4.215,5.725,6.404,8.524c7.177,9.18,14.515,18.237,21.56,27.517c8.788,11.575,17.613,23.118,26.576,34.558
		c6.298,8.039,12.385,16.243,18.608,24.34c5.031,6.545,10.185,12.997,15.141,19.597c1.027,1.368,1.936,1.374,2.86,0.439
		c1.366-1.383,2.522-2.982,3.708-4.534c3.882-5.077,7.706-10.199,11.609-15.259c5.203-6.745,10.483-13.43,15.687-20.175
		c5.62-7.285,11.173-14.622,16.787-21.913c5.247-6.815,10.556-13.581,15.796-20.401c4.177-5.436,8.161-11.027,12.474-16.352
		c4.266-5.267,8.13-10.835,12.385-16.1c1.359-1.681,0.769-2.737-0.549-3.76c-4.184-3.245-8.416-6.427-12.617-9.65
		c-5.72-4.387-11.419-8.803-17.148-13.18c-3.584-2.738-7.211-5.42-10.804-8.147c-0.776-0.589-1.169-0.929-2.028,0.204
		c-6.137,8.1-12.41,16.096-19.085,24.7c0-1.6,0-2.544,0-3.489c0-66.201-0.008-132.403,0.023-198.604
		c0.002-3.251,0.193-6.509,0.374-9.761c0.445-7.986,2.261-15.538,5.499-22.782c2.672-5.978,6.129-11.39,10.451-16.419
		c6.92-8.053,15.132-14.06,24.959-17.851c7.851-3.029,15.878-5.129,24.489-4.329c9.618,0.893,18.526,3.826,26.787,8.683
		c7.773,4.57,14.329,10.58,19.623,17.9c4.726,6.534,8.114,13.722,10.301,21.492c1.812,6.437,2.249,12.977,1.927,19.627
		c-0.207,4.289-1.508,8.273-2.587,12.376c-2.79,10.614-8.21,19.513-15.774,27.373c-6.229,6.472-13.673,11.102-21.45,15.286
		c-8.319,4.476-15.019,10.843-20.909,18.011c-4.868,5.925-8.63,12.585-11.617,19.753c-3.168,7.603-5.026,15.476-5.531,23.554
		c-0.623,9.964,0.219,19.838,3.481,29.49c1.734,5.13,3.52,10.244,6.272,14.806c5.636,9.341,12.602,17.598,21.363,24.328
		c7.233,5.557,14.804,10.521,23.11,14.201c5.459,2.419,11.171,4.242,17.019,5.745c6.934,1.782,13.901,3.09,20.998,3.371
		c7.996,0.316,16.014,0.073,24.022,0.073c50.725,0,101.45,0.002,152.174,0.003v-55.506
		C415.048,299.91,358.883,299.914,302.719,299.93z"/>
</g>
</svg>
