<?xml version="1.0" encoding="utf-8"?>
<!-- Generator: Adobe Illustrator 17.0.0, SVG Export Plug-In . SVG Version: 6.00 Build 0)  -->
<!DOCTYPE svg PUBLIC "-//W3C//DTD SVG 1.1//EN" "http://www.w3.org/Graphics/SVG/1.1/DTD/svg11.dtd">
<svg version="1.1" id="Layer_1" xmlns="http://www.w3.org/2000/svg" xmlns:xlink="http://www.w3.org/1999/xlink" x="0px" y="0px"
	 width="626px" height="625.513px" viewBox="0 0 626 625.513" enable-background="new 0 0 626 625.513" xml:space="preserve">
<g>
	<path fill="none" d="M97.891,15.106c0.013,43.36,0.152,86.72-0.126,130.078c0,0.052,0.002,0.098,0.002,0.149
		c-0.013,7.175,2.343,10.118,9.578,9.211c2.247-0.282,4.563-0.164,6.838-0.046c4.51,0.234,6.571-1.813,6.385-6.285
		c-0.04-0.959-0.04-1.919-0.031-2.879c0.013-1.297,0.045-2.596,0.046-3.893V0H97.667v7.68C97.847,10.148,97.891,12.63,97.891,15.106
		z"/>
	<path fill="none" d="M54.333,29.064c-0.059,0.591-0.126,1.174-0.125,1.712c0.065,38.066,0.266,76.134-0.129,114.196
		c-0.081,7.837,2.408,9.967,9.97,9.682c12.837-0.482,13.636,0.502,13.593-7.983c-0.008-1.52-0.042-3.339-0.04-5.529
		c0.047-41.343,0.003-82.686,0.036-124.029c0-0.025,0.003-0.05,0.004-0.075V0H54.333v26.7
		C54.476,27.439,54.414,28.258,54.333,29.064z"/>
	<path fill="none" d="M547.501,53.812c-21.258-0.15-42.518-0.138-63.777-0.013c-12.866,0.076-20.24,7.467-20.358,20.146
		c-0.099,10.569-0.02,21.14-0.017,31.71c0,10.822-0.095,21.644,0.025,32.465c0.138,12.477,7.094,20.3,19.393,20.524
		c21.758,0.397,43.533,0.384,65.291-0.005c11.519-0.206,19.142-8.025,19.258-19.191c0.229-22.144,0.25-44.295-0.011-66.438
		C567.165,61.21,559.455,53.896,547.501,53.812z"/>
	<path fill="none" d="M313.312,226.335c-49.461-0.069-90.736,40.371-90.06,89.495c0.684,49.69,38.225,88.855,89.576,89.072
		c50.263,0.213,89.03-37.877,90.051-88.59C403.867,267.23,362.617,226.404,313.312,226.335z"/>
	<path fill="#FFFFFF" d="M626.071,232.046c-0.084-6.952-2.1-9.662-9.795-9.623c-55.249,0.281-110.5,0.136-165.75,0.187
		c-2.424,0.002-5.665-1.115-7.057,1.347c-1.652,2.919,1.527,5.001,2.909,7.213c20.267,32.45,28.482,67.642,23.358,105.504
		c-12.179,89.987-97.434,150.635-187.463,133.689c-101.669-19.137-157.955-131.668-111.845-223.738
		c3.157-6.303,6.832-12.36,10.465-18.412c2.384-3.97,1.13-5.527-3.144-5.593c-1.774-0.027-3.548-0.048-5.322-0.048
		c-53.476-0.003-106.952-0.007-160.428,0.001c-11.784,0.002-11.807,0.022-11.808,11.674c-0.007,88.459-0.009,176.918-0.002,265.376
		c0.001,7.698,0.643,15.198,1.874,22.457H0.184v103.445h126.708v-0.02c62.083,0.002,124.166,0,186.249,0
		c61.84,0,123.679-0.014,185.519,0.02h127.411v-385.51c0.005-2.475,0.003-4.949,0.008-7.424
		C626.08,232.402,626.073,232.229,626.071,232.046z"/>
	<path fill="#FFFFFF" d="M0.184,198.472c0.538,4.984,2.947,6.971,9.637,6.938c60.841-0.301,121.685-0.212,182.528-0.08
		c5.191,0.011,9.012-1.545,12.83-5.068c60.967-56.254,154.198-56.182,215.432,0.158c3.604,3.316,7.16,4.915,12.102,4.905
		c61.35-0.125,122.7-0.199,184.049,0.068c7.642,0.033,9.39-2.833,9.306-9.756c-0.185-15.322-0.133-30.646-0.122-45.97H626V48.333V0
		h-53.333H397.333v0.221c-19.035,0-38.069,0-57.104,0c-54.252,0-108.503-0.001-162.755,0c-13.787,0-14.279,0.007-14.297,13.04
		v132.624c0.188,2.783,0.862,6.139-1.78,7.369c-5.618,2.616-12.079,1.953-17.863,0.618c-3.755-0.867-3.485-4.15-3.161-7.201h-0.04
		V4.965V0h-4.537c-3.31-1.167-6.393-1.098-8.905,0h-6.308v141.44v3.893h-0.046c-0.009,0.961-0.009,1.921,0.031,2.879
		c0.186,4.473-1.875,6.52-6.385,6.285c-2.275-0.118-4.591-0.236-6.838,0.046c-7.234,0.907-9.59-2.036-9.578-9.211h-0.101V7.68V0
		H77.642v17.039v129.632l0,0c0.043,8.485-0.755,7.501-13.593,7.983c-7.562,0.284-10.052-1.845-9.97-9.682
		c0.395-38.062,0.194-76.13,0.129-114.196c-0.001-0.538,0.066-1.122,0.125-1.712V26.7V0H0.184v127.559
		c-0.465,22.573,0.191,45.178-0.128,67.762C0.04,196.488,0.082,197.528,0.184,198.472z M567.315,139.449
		c-0.115,11.165-7.738,18.984-19.258,19.191c-21.758,0.389-43.533,0.402-65.291,0.005c-12.299-0.225-19.255-8.047-19.393-20.524
		c-0.12-10.82-0.025-21.643-0.025-32.465c-0.003-10.57-0.082-21.141,0.017-31.71c0.118-12.679,7.492-20.07,20.358-20.146
		c21.258-0.126,42.519-0.137,63.777,0.013c11.954,0.084,19.664,7.399,19.803,19.199C567.565,95.154,567.544,117.304,567.315,139.449
		z"/>
	<path fill="#FFFFFF" d="M312.403,192.34c-68.014-0.047-123.772,55.663-123.739,123.446c0.032,67.681,55.681,123.66,123.895,123.281
		c67.884-0.377,123.834-52.785,124.045-123.039C436.82,244.057,378.183,192.386,312.403,192.34z M402.879,316.312
		c-1.021,50.713-39.788,88.802-90.051,88.59c-51.351-0.217-88.892-39.382-89.576-89.072c-0.676-49.123,40.599-89.563,90.06-89.495
		C362.617,226.404,403.867,267.23,402.879,316.312z"/>
	<rect x="54.333" y="-0.852" fill="#FFFFFF" width="23.309" height="0.852"/>
	<path fill="#FFFFFF" d="M77.603,141.143c-0.003,2.19,0.032,4.009,0.04,5.529l0,0V17.039c0,0.025-0.004,0.05-0.004,0.075
		C77.606,58.457,77.649,99.8,77.603,141.143z"/>
	<path fill="#FFFFFF" d="M54.333,26.7v2.364C54.414,28.258,54.476,27.439,54.333,26.7z"/>
	<rect x="97.667" y="-0.852" fill="#FFFFFF" width="22.917" height="0.852"/>
	<path fill="#FFFFFF" d="M97.891,15.106c-0.001-2.476-0.045-4.958-0.225-7.426v137.654h0.101c0-0.051-0.003-0.098-0.002-0.149
		C98.043,101.826,97.904,58.465,97.891,15.106z"/>
	<path fill="#FFFFFF" d="M120.583,145.333v-3.893c-0.001,1.297-0.033,2.596-0.046,3.893H120.583z"/>
	<rect x="140.333" y="-0.852" fill="#FFFFFF" width="22.844" height="0.852"/>
	<path fill="#FFFFFF" d="M163.176,14.751c-0.002,43.36,0.016,86.72-0.041,130.079c0,0.337,0.017,0.692,0.041,1.055V13.261
		C163.177,13.742,163.176,14.235,163.176,14.751z"/>
	<path fill="#FFFFFF" d="M140.373,146.672c0.098-0.926,0.202-1.832,0.199-2.641c-0.127-39.326-0.079-78.652-0.083-117.979
		c-0.001-6.302,0.021-12.605-0.057-18.906c-0.009-0.732-0.02-1.469-0.098-2.18v141.706L140.373,146.672L140.373,146.672z"/>
</g>
</svg>
