<?xml version="1.0" encoding="utf-8"?>
<!-- Generator: Adobe Illustrator 17.0.0, SVG Export Plug-In . SVG Version: 6.00 Build 0)  -->
<!DOCTYPE svg PUBLIC "-//W3C//DTD SVG 1.1//EN" "http://www.w3.org/Graphics/SVG/1.1/DTD/svg11.dtd">
<svg version="1.1" id="Layer_1" xmlns="http://www.w3.org/2000/svg" xmlns:xlink="http://www.w3.org/1999/xlink" x="0px" y="0px"
	 width="626px" height="625.513px" viewBox="0 0 626 625.513" enable-background="new 0 0 626 625.513" xml:space="preserve">
<g>
	<path fill="none" d="M477.54,135.792c-28.391-25.604-61.427-34.067-98.019-23.195c-37.898,11.259-61.49,37.274-70.924,75.852
		c-3.074,12.568-3.196,25.42-1.008,38.156c0.962,5.602-0.902,7.622-6.231,7.106c-3.564-0.345-7.13-0.689-10.686-1.114
		c-75.497-9.016-138.01-42.562-187.772-100.168c-4.866-5.633-5.383-5.765-8.341,0.889c-16.263,36.589-13.867,71.672,8.888,104.955
		c6.442,9.422,14.753,17.119,23.427,24.674c-12.807,0.382-24.474-3.153-35.817-7.942c-7.452-3.146-7.905-2.963-7.483,4.932
		c0.072,1.345,0.227,2.691,0.435,4.022c7.104,45.51,32.624,74.759,76.77,87.563c0.876,0.254,1.626,0.705,1.493,2.493
		c-11.617,2.879-23.554,3.254-35.577,2.17c-6.536-0.589-7.248,0.129-4.472,6.346c15.346,34.362,41.175,55.363,78.442,61.669
		c3.876,0.656,7.761,1.259,13.577,2.2c-44.795,33.91-93.449,47.399-149.03,42.775c16.589,10.995,32.777,19.007,49.685,25.497
		c45.875,17.61,93.223,23.149,142.015,17.435c47.013-5.505,90.274-20.973,129.066-48.302
		c51.633-36.376,86.571-85.441,107.589-144.747c11.521-32.507,17.421-66.062,16.501-100.648c-0.164-6.164,1.44-10.528,6.713-14.246
		c10.681-7.532,19.563-17.176,28.352-26.79c5.218-5.707,9.983-11.872,14.552-19.912c-18.424,7.307-35.98,12.637-54.796,14.167
		c19.439-13.852,34.124-31.05,41.965-55.205c-19.021,10.506-37.619,18.108-57.373,22.828
		C484.562,140.429,481.309,139.191,477.54,135.792z"/>
	<path fill="#FF0F2E" d="M626,498.235V0h-55.018c-0.104,0-0.205-0.007-0.309-0.007C553.081-0.008,535.491,0,517.9,0H0v568.723
		v56.851h626v-54.675c0.001-0.132,0.009-0.261,0.009-0.393C626.01,546.415,626,522.325,626,498.235z M546.857,116.425
		c-7.841,24.155-22.526,41.353-41.965,55.205c18.816-1.531,36.372-6.861,54.796-14.167c-4.569,8.041-9.334,14.205-14.552,19.912
		c-8.789,9.613-17.671,19.258-28.352,26.79c-5.273,3.718-6.877,8.082-6.713,14.246c0.919,34.586-4.981,68.141-16.501,100.648
		c-21.018,59.306-55.956,108.371-107.589,144.747c-38.792,27.329-82.053,42.796-129.066,48.302
		c-48.792,5.713-96.14,0.175-142.015-17.435c-16.909-6.491-33.097-14.502-49.685-25.497c55.581,4.624,104.235-8.864,149.03-42.775
		c-5.816-0.941-9.701-1.544-13.577-2.2c-37.268-6.306-63.096-27.308-78.442-61.669c-2.777-6.217-2.064-6.936,4.472-6.346
		c12.023,1.084,23.959,0.708,35.577-2.17c0.133-1.788-0.617-2.239-1.493-2.493c-44.146-12.803-69.667-42.053-76.77-87.563
		c-0.208-1.331-0.363-2.677-0.435-4.022c-0.422-7.895,0.031-8.078,7.483-4.932c11.343,4.789,23.01,8.324,35.817,7.942
		c-8.674-7.555-16.985-15.252-23.427-24.674c-22.755-33.283-25.151-68.365-8.888-104.955c2.958-6.654,3.475-6.523,8.341-0.889
		c49.762,57.607,112.275,91.152,187.772,100.168c3.556,0.425,7.121,0.768,10.686,1.114c5.33,0.517,7.194-1.503,6.231-7.106
		c-2.188-12.736-2.066-25.588,1.008-38.156c9.434-38.577,33.026-64.592,70.924-75.852c36.591-10.871,69.627-2.409,98.019,23.195
		c3.769,3.399,7.022,4.637,11.944,3.461C509.239,134.534,527.836,126.931,546.857,116.425z"/>
</g>
</svg>
